<svg width="100" height="100" >


<polygon points="40,32 25,28, 20,40" fill="#a1a1a1" /> 

<polygon points="40,33.5 26,30, 20,43.5" fill="#4e4e4e" /> 
 
<polygon points="60,32 75,28, 80,40" fill="#a1a1a1" />  

<polygon points="60,33.5 74,30, 79.9,43.5" fill="#4e4e4e" />

<ellipse cx="50" cy="50" r="70" rx="35" ry="20" fill="#c2c2c2" /> 


<line x1="50" x2="50" y1="52" y2="56.1" stroke="#2c2c2c" stroke-width="0.7" />
<path d="M50,56 A1,1 0 1,0 55,56" stroke="#2c2c2c" stroke-width="0.7" fill="none" />
<path d="M50,56 A1,1 0 1,1 45,56" stroke="#2c2c2c" stroke-width="0.7" fill="none" />
<polygon points="53,50 50,53, 47,50" fill="#a00202" stroke="#2c2c2c" stroke-width="0.7" /> 

<circle cx="59" cy="53" r="3" fill="#a1a1a1" />
<line x1="59" x2="65" y1="52.5" y2="50" stroke="#2c2c2c" stroke-width="0.5" />
<line x1="59" x2="65" y1="53.5" y2="55" stroke="#2c2c2c" stroke-width="0.5" />

<circle cx="41" cy="53" r="3" fill="#a1a1a1" />
<line x1="41" x2="35" y1="52.5" y2="50" stroke="#2c2c2c" stroke-width="0.5" />
<line x1="41" x2="35" y1="53.5" y2="55" stroke="#2c2c2c" stroke-width="0.5" />

<ellipse cx="38" cy="44" r="5" rx="1" ry="2" fill="white" stroke-width="0.3" stroke="#2c2c2c" />
<ellipse  rx="1" ry="2" cx="38" cy="44" /> 
<ellipse cx="62" cy="44" r="5" rx="1" ry="2" fill="black" /> 

</svg>