<!-- inspired by: "https://github.com/JKeatingMU/EUCodeWeek2021/blob/main/L01.01.md" -->

<svg version="1.1" width="100" height="100" xmlns="http://www.w3.org/2000/svg" >

<defs>
    <linearGradient id="eyeLinearGradient" gradientTransform="rotate(90)">
       <stop offset="2%"  stop-color="#838383" />
       <stop offset="98%" stop-color="black" />
     </linearGradient>
     <radialGradient id="emojiRadialGradient" cx="50%" cy="50%" r="50%" fx="50%" fy="50%">
       <stop offset="0%" style="stop-color:#c2c2c2;" />
       <stop offset="100%" style="stop-color:#a1a1a1;" />
     </radialGradient>   
</defs>


<polygon points="40,32 25,28, 20,40" fill="#a1a1a1" /> 

<polygon points="40,33.5 26,30, 20,43.5" fill="#4e4e4e" /> 
 
<polygon points="60,32 75,28, 80,40" fill="#a1a1a1" />  

<polygon points="60,33.5 74,30, 79.9,43.5" fill="#4e4e4e" />

<ellipse cx="50" cy="50" r="70" rx="35" ry="20" fill="url('#emojiRadialGradient')" /> 


<line x1="50" x2="50" y1="52" y2="56.1" stroke="#2c2c2c" stroke-width="0.7" />
<path d="M50,56 A1,1 0 1,0 55,56" stroke="#2c2c2c" stroke-width="0.7" fill="none" />
<path d="M50,56 A1,1 0 1,1 45,56" stroke="#2c2c2c" stroke-width="0.7" fill="none" />
<polygon points="53,50 50,53, 47,50" fill="#a00202" stroke="#2c2c2c" stroke-width="0.7" /> 


<line x1="59" x2="65" y1="52.5" y2="50" stroke="#2c2c2c" stroke-width="0.3" />
<line x1="60.5" x2="66" y1="53" y2="53" stroke="#2c2c2c" stroke-width="0.3" />
<line x1="59" x2="65" y1="53.5" y2="55" stroke="#2c2c2c" stroke-width="0.3" />


<line x1="41" x2="35" y1="52.5" y2="50" stroke="#2c2c2c" stroke-width="0.3" />
<line x1="39.5" x2="34" y1="53" y2="53" stroke="#2c2c2c" stroke-width="0.3" />
<line x1="41" x2="35" y1="53.5" y2="55" stroke="#2c2c2c" stroke-width="0.3" />

<!-- eyes -->
<ellipse stroke-width="0.2" stroke="#2c2c2c"  rx="1" ry="2" cx="38" cy="44" fill="url('#eyeLinearGradient')" /> 
<ellipse stroke-width="0.2" stroke="#2c2c2c" cx="62" cy="44" r="5" rx="1" ry="2" fill="url('#eyeLinearGradient')" /> 

</svg>