<svg id="visual" viewBox="0 0 960 300" width="960" height="300" xmlns="http://www.w3.org/2000/svg" xmlns:xlink="http://www.w3.org/1999/xlink" version="1.1"><rect x="0" y="0" width="960" height="300" fill="#202731"></rect><path d="M0 103L22.8 105C45.7 107 91.3 111 137 111.7C182.7 112.3 228.3 109.7 274 106.3C319.7 103 365.3 99 411.2 94.5C457 90 503 85 548.8 85.7C594.7 86.3 640.3 92.7 686 97.3C731.7 102 777.3 105 823 103.2C868.7 101.3 914.3 94.7 937.2 91.3L960 88L960 0L937.2 0C914.3 0 868.7 0 823 0C777.3 0 731.7 0 686 0C640.3 0 594.7 0 548.8 0C503 0 457 0 411.2 0C365.3 0 319.7 0 274 0C228.3 0 182.7 0 137 0C91.3 0 45.7 0 22.8 0L0 0Z" fill="#fa6969"></path><path d="M0 70L22.8 70.2C45.7 70.3 91.3 70.7 137 74.8C182.7 79 228.3 87 274 89.3C319.7 91.7 365.3 88.3 411.2 84.5C457 80.7 503 76.3 548.8 76C594.7 75.7 640.3 79.3 686 79.3C731.7 79.3 777.3 75.7 823 72.5C868.7 69.3 914.3 66.7 937.2 65.3L960 64L960 0L937.2 0C914.3 0 868.7 0 823 0C777.3 0 731.7 0 686 0C640.3 0 594.7 0 548.8 0C503 0 457 0 411.2 0C365.3 0 319.7 0 274 0C228.3 0 182.7 0 137 0C91.3 0 45.7 0 22.8 0L0 0Z" fill="#f35e5b"></path><path d="M0 79L22.8 77C45.7 75 91.3 71 137 67.8C182.7 64.7 228.3 62.3 274 58.3C319.7 54.3 365.3 48.7 411.2 51.7C457 54.7 503 66.3 548.8 66.7C594.7 67 640.3 56 686 50.5C731.7 45 777.3 45 823 48.3C868.7 51.7 914.3 58.3 937.2 61.7L960 65L960 0L937.2 0C914.3 0 868.7 0 823 0C777.3 0 731.7 0 686 0C640.3 0 594.7 0 548.8 0C503 0 457 0 411.2 0C365.3 0 319.7 0 274 0C228.3 0 182.7 0 137 0C91.3 0 45.7 0 22.8 0L0 0Z" fill="#ec544d"></path><path d="M0 39L22.8 38.5C45.7 38 91.3 37 137 36.5C182.7 36 228.3 36 274 36.2C319.7 36.3 365.3 36.7 411.2 35.7C457 34.7 503 32.3 548.8 31.2C594.7 30 640.3 30 686 29.8C731.7 29.7 777.3 29.3 823 33C868.7 36.7 914.3 44.3 937.2 48.2L960 52L960 0L937.2 0C914.3 0 868.7 0 823 0C777.3 0 731.7 0 686 0C640.3 0 594.7 0 548.8 0C503 0 457 0 411.2 0C365.3 0 319.7 0 274 0C228.3 0 182.7 0 137 0C91.3 0 45.7 0 22.8 0L0 0Z" fill="#e54a3f"></path><path d="M0 28L22.8 26.8C45.7 25.7 91.3 23.3 137 21.8C182.7 20.3 228.3 19.7 274 21.2C319.7 22.7 365.3 26.3 411.2 26.5C457 26.7 503 23.3 548.8 23.8C594.7 24.3 640.3 28.7 686 30C731.7 31.3 777.3 29.7 823 29C868.7 28.3 914.3 28.7 937.2 28.8L960 29L960 0L937.2 0C914.3 0 868.7 0 823 0C777.3 0 731.7 0 686 0C640.3 0 594.7 0 548.8 0C503 0 457 0 411.2 0C365.3 0 319.7 0 274 0C228.3 0 182.7 0 137 0C91.3 0 45.7 0 22.8 0L0 0Z" fill="#dd3f31"></path></svg>